<svg xmlns="http://www.w3.org/2000/svg" viewBox="0 0 3000 2400" width="3000" height="2400"><g transform="translate(805.1999999999999 568.8) rotate(0.0 115.19999999999999 70.19999999999999) scale(1.4632473421483823 1.4546358748018522)"><svg width="157.458" height="96.519" viewBox="0 0 157.458 96.519"><linearGradient id="a" gradientUnits="userSpaceOnUse" x1="0" x2="232.2" y1="48.26" y2="48.26"><stop offset="0" stop-color="#ff593b"/><stop offset=".389" stop-color="#fd593b"/><stop offset=".529" stop-color="#f6573c"/><stop offset=".629" stop-color="#eb553e"/><stop offset=".71" stop-color="#da5240"/><stop offset=".779" stop-color="#c44e44"/><stop offset=".84" stop-color="#a84948"/><stop offset=".896" stop-color="#88424c"/><stop offset=".947" stop-color="#623b52"/><stop offset=".992" stop-color="#393458"/><stop offset="1" stop-color="#313259"/></linearGradient><path d="M0 0h157.458v96.519H0z" fill="url(#a)"/><path d="M157.458 48.26S122.21 96.52 78.729 96.52 0 48.26 0 48.26 35.248 0 78.729 0s78.729 48.26 78.729 48.26z" fill="#fff9e9"/><circle cx="78.729" cy="43.205" fill="#313259" r="43.205"/></svg></g><g transform="translate(1598.3999999999999 910.8) rotate(0.0 518.4 685.8000000000001) scale(1.4278317009485826 1.4260420056496883)"><svg width="726.136" height="961.823" viewBox="0 0 726.136 961.823"><linearGradient id="b" gradientUnits="userSpaceOnUse" x1="173.168" x2=".141" y1="937.045" y2="673.546"><stop offset=".388" stop-color="#fff9e9"/><stop offset=".46" stop-color="#f8f5e9"/><stop offset=".563" stop-color="#e5ebea"/><stop offset=".686" stop-color="#c6d9eb"/><stop offset=".822" stop-color="#9bc1ed"/><stop offset=".843" stop-color="#94bded"/></linearGradient><linearGradient id="c" gradientUnits="userSpaceOnUse" x1="592.951" x2="511.403" y1="799.484" y2="659.509"><stop offset=".006" stop-color="#fff9e9"/><stop offset=".256" stop-color="#fcf7e9"/><stop offset=".431" stop-color="#f3f2e9"/><stop offset=".584" stop-color="#e4eaea"/><stop offset=".723" stop-color="#ceddeb"/><stop offset=".852" stop-color="#b2ceec"/><stop offset=".959" stop-color="#94bded"/></linearGradient><linearGradient id="d" gradientUnits="userSpaceOnUse" x1="540.556" x2="379.273" y1="926.393" y2="699.968"><stop offset=".006" stop-color="#fff9e9"/><stop offset=".169" stop-color="#f9f6e9"/><stop offset=".379" stop-color="#e9edea"/><stop offset=".616" stop-color="#cfdeeb"/><stop offset=".87" stop-color="#aac9ec"/><stop offset="1" stop-color="#94bded"/></linearGradient><linearGradient id="e" gradientUnits="userSpaceOnUse" x1="147.22" x2="868.42" y1="147.493" y2="957.266"><stop offset=".145" stop-color="#fff9e9"/><stop offset=".267" stop-color="#fbf7e9"/><stop offset=".395" stop-color="#eef0ea"/><stop offset=".525" stop-color="#d9e4ea"/><stop offset=".658" stop-color="#bcd3ec"/><stop offset=".79" stop-color="#96beed"/><stop offset=".798" stop-color="#94bded"/></linearGradient><linearGradient id="f" gradientUnits="userSpaceOnUse" x1="172.734" x2="663.22" y1="314.508" y2="880.979"><stop offset="0" stop-color="#fff9e9"/><stop offset=".193" stop-color="#fbf7e9"/><stop offset=".377" stop-color="#f0f0ea"/><stop offset=".557" stop-color="#dce6ea"/><stop offset=".735" stop-color="#c1d6eb"/><stop offset=".911" stop-color="#9fc3ed"/><stop offset=".959" stop-color="#94bded"/></linearGradient><path d="M42.318 961.823H8.321l100-304.94h61.997z" fill="url(#b)"/><path d="M631.702 961.823h33.997l-100-304.94h-61.997z" fill="url(#c)"/><path d="M479.942 961.823h25.152l-56.983-285.74h-55.868z" fill="url(#d)"/><path d="M323.49 89.852c40.833-61.559 197.167-182.807 341.655 33.65s8.089 491.663-157.965 578.957C317.001 802.435 28.516 721.827 1.796 559.404c-21.121-128.388 149.769-120.46 212.551-143.888 0 0 11.757-178.847 109.143-325.664z" fill="url(#e)"/><path d="M630.249 586.03c-72 144-315.69 208.372-477 126-116.803-59.645-135-132-135-132s72 60 264.26 31.16c231.5-34.72 318.84-257.6 320.19-261.08.01-.03.02-.04.02-.04s85.16 120.7 27.53 235.96z" fill="url(#f)"/><path d="M184.273 623.967c-47.625 0-83.028-6.136-107.3-12.716-42.597-11.548-61.156-26.739-61.925-27.379a5 5 0 0 1 6.397-7.686c.416.338 18.443 14.785 59.007 25.646 37.795 10.12 103.4 19.101 201.314 4.413 52.149-7.821 101.126-26.067 145.569-54.23 35.68-22.61 68.567-51.645 97.749-86.3 50.231-59.652 72.048-115.083 72.952-117.413a5.2 5.2 0 0 1 1.146-1.767 5.001 5.001 0 0 1 8.104 5.57c-1.687 4.294-24.201 60.256-74.553 120.051-29.841 35.438-63.501 65.148-100.045 88.306-45.626 28.913-95.904 47.644-149.438 55.673-37.528 5.629-70.447 7.832-98.977 7.832z" fill="#fff9e9"/></svg></g><g transform="translate(1032.0 254.39999999999998) rotate(0.0 514.2 346.2) scale(1.422072265165867 1.4171043098472786)"><svg width="723.17" height="488.602" viewBox="0 0 723.17 488.602"><linearGradient id="g" gradientUnits="userSpaceOnUse" x1="1087.697" x2="10.299" y1="-473.369" y2="591.503"><stop offset=".222" stop-color="#fff"/><stop offset=".345" stop-color="#b9d7dc"/><stop offset=".551" stop-color="#4998a4"/><stop offset=".643" stop-color="#1c7e8e"/><stop offset=".751" stop-color="#1d7b8c"/><stop offset=".825" stop-color="#1f7286"/><stop offset=".889" stop-color="#24637b"/><stop offset=".947" stop-color="#294d6c"/><stop offset="1" stop-color="#313259"/></linearGradient><linearGradient id="h" gradientUnits="userSpaceOnUse" x1="435.974" x2="467.89" y1="462.542" y2="279.832"><stop offset=".091" stop-color="#e6efe8"/><stop offset=".497" stop-color="#f8f6e9"/><stop offset=".792" stop-color="#fff9e9"/></linearGradient><linearGradient id="i" gradientUnits="userSpaceOnUse" x1="190.187" x2="179.042" y1="492.869" y2="222.791"><stop offset=".576" stop-color="#dbe7de"/><stop offset=".619" stop-color="#e5ece1"/><stop offset=".721" stop-color="#f8f6e7"/><stop offset=".792" stop-color="#fff9e9"/></linearGradient><path d="M703.17 488.602H20c-11.046 0-20-8.954-20-20V20C0 8.954 8.954 0 20 0h683.17c11.046 0 20 8.954 20 20v448.602c0 11.046-8.954 20-20 20z" fill="url(#g)"/><g fill="#fff9e9"><circle cx="74.167" cy="72.013" r="17.696"/><circle cx="256.054" cy="72.013" r="17.696"/><circle cx="336.712" cy="72.013" r="17.696"/><circle cx="454.323" cy="72.013" r="17.696"/><path d="M184.601 290.37a3.5 3.5 0 0 1-3.5-3.5v-97.018h-37.666a3.5 3.5 0 0 1-3.5-3.5v-67.765a3.5 3.5 0 0 1 3.5-3.5h109.441V77.929a3.5 3.5 0 1 1 7 0v40.659a3.5 3.5 0 0 1-3.5 3.5H146.935v60.765h37.666a3.5 3.5 0 0 1 3.5 3.5V286.87a3.5 3.5 0 0 1-3.5 3.5z"/><path d="M143.435 122.088a3.5 3.5 0 0 1-3.5-3.5V75.514H82.447a3.5 3.5 0 1 1 0-7h60.988a3.5 3.5 0 0 1 3.5 3.5v46.574a3.5 3.5 0 0 1-3.5 3.5zm141.176 103.906h-100.01a3.5 3.5 0 1 1 0-7h96.51v-61.948a3.5 3.5 0 0 1 3.5-3.5h48.601V77.929a3.5 3.5 0 1 1 7 0v79.117a3.5 3.5 0 0 1-3.5 3.5h-48.601v61.948a3.5 3.5 0 0 1-3.5 3.5zm169.712 135.005a3.5 3.5 0 0 1-3.5-3.5V225.994h-56.101a3.5 3.5 0 0 1-3.5-3.5v-91.482a3.5 3.5 0 0 1 3.5-3.5h56.101V77.929a3.5 3.5 0 1 1 7 0v53.083a3.5 3.5 0 0 1-3.5 3.5h-56.101v84.482h56.101a3.5 3.5 0 0 1 3.5 3.5v135.005a3.5 3.5 0 0 1-3.5 3.5z"/><path d="M538.053 181.947H394.722a3.5 3.5 0 1 1 0-7h139.831V77.929a3.5 3.5 0 1 1 7 0v100.518a3.5 3.5 0 0 1-3.5 3.5z"/></g><path d="M376.585 450.237h155.476c8.284 0 15-6.716 15-15V279.761c0-8.284-6.716-15-15-15H376.585c-8.284 0-15 6.716-15 15v155.476c0 8.284 6.716 15 15 15z" fill="url(#h)"/><path d="M106.863 450.237h155.476c8.284 0 15-6.716 15-15V279.761c0-8.284-6.716-15-15-15H106.863c-8.284 0-15 6.716-15 15v155.476c0 8.284 6.715 15 15 15z" fill="url(#i)"/><circle cx="538.053" cy="72.013" fill="#fff9e9" r="17.696"/></svg></g><g transform="translate(361.2 171.6) rotate(0.0 223.79999999999998 304.79999999999995) scale(1.433921403423343 1.4276480341736222)"><svg width="312.151" height="426.996" viewBox="0 0 312.151 426.996"><linearGradient id="j" gradientUnits="userSpaceOnUse" x1="479.433" x2="-406.589" y1="143.633" y2="335.068"><stop offset=".01" stop-color="#dbe7de"/><stop offset=".182" stop-color="#d7e7dc"/><stop offset=".367" stop-color="#cae5d4"/><stop offset=".559" stop-color="#b4e3c8"/><stop offset=".754" stop-color="#96dfb8"/><stop offset=".945" stop-color="#71dba3"/></linearGradient><path d="M292.151 426.996H20c-11.046 0-20-8.954-20-20V20C0 8.954 8.954 0 20 0h272.151c11.046 0 20 8.954 20 20v386.996c0 11.046-8.954 20-20 20z" fill="url(#j)"/><g fill="#f991b9"><circle cx="122.88" cy="59.558" r="16.659"/><circle cx="246.55" cy="304.555" r="16.659"/><circle cx="57.346" cy="357.248" r="16.659"/><circle cx="57.346" cy="224.635" r="16.659"/></g><path d="M57.346 229.635a5 5 0 0 1-5-5V59.558a5 5 0 0 1 5-5h65.534a5 5 0 0 1 0 10H62.346v160.077a5 5 0 0 1-5 5z" fill="#1c7e8e"/><path d="M246.55 309.555H122.88a5 5 0 0 1-5-5V111.146H57.346a5 5 0 0 1 0-10h65.534a5 5 0 0 1 5 5v193.409h118.67a5 5 0 0 1 0 10z" fill="#1c7e8e"/><path d="M156.075 362.249H57.346a5 5 0 0 1 0-10h93.729v-47.694a5 5 0 0 1 10 0v52.694a5 5 0 0 1-5 5z" fill="#1c7e8e"/><circle cx="234.409" cy="59.558" fill="#f991b9" r="16.659"/><path d="M234.409 186.774a5 5 0 0 1-5-5V59.558a5 5 0 0 1 10 0v122.216a5 5 0 0 1-5 5z" fill="#1c7e8e"/><path d="M234.409 229.661c-29.237 0-53.024-23.787-53.024-53.024a5 5 0 0 1 10 0c0 23.724 19.3 43.024 43.024 43.024s43.024-19.3 43.024-43.024a5 5 0 0 1 10 0c0 29.237-23.787 53.024-53.024 53.024z" fill="#1c7e8e"/><path d="M215.534 205.649a5 5 0 0 1-3.536-8.535l37.75-37.75a5.001 5.001 0 0 1 7.071 7.071l-37.75 37.75a4.983 4.983 0 0 1-3.535 1.464z" fill="#1c7e8e"/><path d="M253.284 205.649a4.987 4.987 0 0 1-3.536-1.464l-37.75-37.75a5 5 0 0 1 7.071-7.071l37.75 37.75a5 5 0 0 1-3.535 8.535z" fill="#1c7e8e"/></svg></g><g transform="translate(657.6 668.4) rotate(0.0 422.3999999999999 266.40000000000003) scale(1.4179302381008325 1.4241610200072172)"><svg width="595.798" height="374.115" viewBox="0 0 595.798 374.115"><linearGradient id="l" gradientUnits="userSpaceOnUse" x1="212.972" x2="665.827" y1="138.106" y2="504.3"><stop offset=".303" stop-color="#e6efe8"/><stop offset=".392" stop-color="#e2ede6"/><stop offset=".487" stop-color="#d5e5e0"/><stop offset=".585" stop-color="#bfd9d7"/><stop offset=".684" stop-color="#a1c9c9"/><stop offset=".786" stop-color="#7bb3b8"/><stop offset=".887" stop-color="#4c99a4"/><stop offset=".978" stop-color="#1c7e8e"/></linearGradient><linearGradient id="k"><stop offset=".091" stop-color="#e6efe8"/><stop offset=".497" stop-color="#f8f6e9"/><stop offset=".792" stop-color="#fff9e9"/></linearGradient><linearGradient xmlns:xlink="http://www.w3.org/1999/xlink" id="m" gradientUnits="userSpaceOnUse" x1="522.918" x2="19.816" xlink:href="#k" y1="386.391" y2="259.48"/><linearGradient xmlns:xlink="http://www.w3.org/1999/xlink" id="n" gradientUnits="userSpaceOnUse" x1="522.918" x2="19.816" xlink:href="#k" y1="336.435" y2="209.524"/><clipPath id="o"><path d="M562.388 28.602H264.282V178.71c0 11.046 8.954 20 20 20h298.106V48.602c0-11.046-8.955-20-20-20z"/></clipPath><path d="M562.388 374.115H20c-11.046 0-20-8.954-20-20V48.602c0-11.046 8.954-20 20-20h542.388c11.046 0 20 8.954 20 20v305.513c0 11.046-8.955 20-20 20z" fill="url(#l)"/><path d="M515.803 344.052H69.096c-8.725 0-15.798-7.073-15.798-15.798s7.073-15.798 15.798-15.798h446.707c8.725 0 15.798 7.073 15.798 15.798s-7.073 15.798-15.798 15.798z" fill="url(#m)"/><path d="M515.803 294.096H69.096c-8.725 0-15.798-7.073-15.798-15.798S60.371 262.5 69.096 262.5h446.707c8.725 0 15.798 7.073 15.798 15.798s-7.073 15.798-15.798 15.798z" fill="url(#n)"/><g fill="#fff9e9"><path d="M410.728 237.654H233.634a3.5 3.5 0 0 1-3.5-3.5v-73.412a3.5 3.5 0 1 1 7 0v69.912h170.094V90.831H172.534V198.71a3.5 3.5 0 0 1-3.5 3.5h-80.04a3.5 3.5 0 1 1 0-7h76.541V87.331a3.5 3.5 0 0 1 3.5-3.5h241.693a3.5 3.5 0 0 1 3.5 3.5v146.823a3.5 3.5 0 0 1-3.5 3.5z"/><path d="M169.034 123.794h-47.396a3.5 3.5 0 1 1 0-7h47.396a3.5 3.5 0 1 1 0 7z"/><path d="M103.942 141.49c-11.688 0-21.196-9.509-21.196-21.196s9.509-21.196 21.196-21.196 21.196 9.509 21.196 21.196-9.508 21.196-21.196 21.196zm0-35.392c-7.828 0-14.196 6.369-14.196 14.196s6.369 14.196 14.196 14.196 14.196-6.369 14.196-14.196-6.368-14.196-14.196-14.196zm306.786 58.145H169.034a3.5 3.5 0 1 1 0-7h241.693a3.5 3.5 0 0 1 .001 7z"/></g><circle cx="88.994" cy="198.71" fill="#1c7e8e" r="17.696"/><path d="M562.388 28.602H264.282V178.71c0 11.046 8.954 20 20 20h298.106V48.602c0-11.046-8.955-20-20-20z" fill="#c7e2cd"/><g clip-path="url(#o)" fill="#fff9e9"><path d="M287.298 212a2.5 2.5 0 0 1-2.5-2.5V2.5a2.5 2.5 0 1 1 5 0v207a2.5 2.5 0 0 1-2.5 2.5zm54 0a2.5 2.5 0 0 1-2.5-2.5V2.5a2.5 2.5 0 1 1 5 0v207a2.5 2.5 0 0 1-2.5 2.5zm54 0a2.5 2.5 0 0 1-2.5-2.5V2.5a2.5 2.5 0 1 1 5 0v207a2.5 2.5 0 0 1-2.5 2.5zm54 0a2.5 2.5 0 0 1-2.5-2.5V2.5a2.5 2.5 0 1 1 5 0v207a2.5 2.5 0 0 1-2.5 2.5zm54 0a2.5 2.5 0 0 1-2.5-2.5V2.5a2.5 2.5 0 1 1 5 0v207a2.5 2.5 0 0 1-2.5 2.5zm54 0a2.5 2.5 0 0 1-2.5-2.5V2.5a2.5 2.5 0 1 1 5 0v207a2.5 2.5 0 0 1-2.5 2.5z"/><path d="M593.298 68h-364.5a2.5 2.5 0 1 1 0-5h364.5a2.5 2.5 0 1 1 0 5zm0 54h-364.5a2.5 2.5 0 1 1 0-5h364.5a2.5 2.5 0 1 1 0 5zm0 54h-364.5a2.5 2.5 0 1 1 0-5h364.5a2.5 2.5 0 1 1 0 5zm0 108h-364.5a2.5 2.5 0 1 1 0-5h364.5a2.5 2.5 0 1 1 0 5z"/></g><path d="M106.824 28.602H20c-11.046 0-20 8.954-20 20v32.051h86.824c11.046 0 20-8.954 20-20z" fill="#94bded"/></svg></g><g transform="translate(806.4 612.0) rotate(0.0 802.1999999999998 838.8) scale(1.4281009390716093 1.4271216056309033)"><svg width="1123.45" height="1175.513" viewBox="0 0 1123.45 1175.513"><linearGradient id="p" gradientUnits="userSpaceOnUse" x1="417.086" x2="482.969" y1="551.747" y2="944.329"><stop offset=".147" stop-color="#ffaba0"/><stop offset=".212" stop-color="#f7a69d"/><stop offset=".314" stop-color="#e09995"/><stop offset=".439" stop-color="#bc8389"/><stop offset=".584" stop-color="#896677"/><stop offset=".744" stop-color="#484061"/><stop offset=".798" stop-color="#313259"/></linearGradient><linearGradient id="q" gradientUnits="userSpaceOnUse" x1="429.5" x2="191.661" y1="938.381" y2="791.077"><stop offset=".473" stop-color="#dbe7de"/><stop offset=".532" stop-color="#e6ede2"/><stop offset=".639" stop-color="#f4f4e6"/><stop offset=".77" stop-color="#fdf8e8"/><stop offset="1" stop-color="#fff9e9"/></linearGradient><linearGradient id="r" gradientUnits="userSpaceOnUse" x1="361.569" x2="92.4" y1="1065.382" y2="712.335"><stop offset="0" stop-color="#ff593b"/><stop offset=".197" stop-color="#ff7d62"/><stop offset=".583" stop-color="#ffc0aa"/><stop offset=".861" stop-color="#ffe9d8"/><stop offset="1" stop-color="#fff9e9"/></linearGradient><linearGradient id="s" gradientTransform="matrix(.972 -.0145 -.0145 .9925 118.1087 60.9664)" gradientUnits="userSpaceOnUse" x1="270.788" x2="734.863" y1="670.823" y2="448.713"><stop offset=".289" stop-color="#ffaba0"/><stop offset=".339" stop-color="#f7a69d"/><stop offset=".419" stop-color="#e09995"/><stop offset=".517" stop-color="#bc8389"/><stop offset=".631" stop-color="#896677"/><stop offset=".755" stop-color="#484061"/><stop offset=".798" stop-color="#313259"/></linearGradient><linearGradient id="t" gradientUnits="userSpaceOnUse" x1="590.294" x2="185.046" y1="1120.517" y2="1023.428"><stop offset="0" stop-color="#ff593b"/><stop offset=".154" stop-color="#ff5d3f"/><stop offset=".302" stop-color="#ff674a"/><stop offset=".448" stop-color="#ff795e"/><stop offset=".594" stop-color="#ff9279"/><stop offset=".738" stop-color="#ffb39c"/><stop offset=".879" stop-color="#ffdac7"/><stop offset=".977" stop-color="#fff9e9"/></linearGradient><linearGradient id="u" gradientUnits="userSpaceOnUse" x1="620.475" x2="1055.202" y1="588.285" y2="191.499"><stop offset="0" stop-color="#ffaba0"/><stop offset=".085" stop-color="#fca99f"/><stop offset=".152" stop-color="#f2a39c"/><stop offset=".212" stop-color="#e19a96"/><stop offset=".269" stop-color="#ca8c8e"/><stop offset=".323" stop-color="#ac7a83"/><stop offset=".375" stop-color="#876477"/><stop offset=".424" stop-color="#5c4b68"/><stop offset=".466" stop-color="#313259"/></linearGradient><linearGradient id="v" gradientUnits="userSpaceOnUse" x1="736.846" x2="835.254" y1="123.002" y2="186.423"><stop offset=".101" stop-color="#fff9e9"/><stop offset=".222" stop-color="#f8f4e9"/><stop offset=".4" stop-color="#e4e8e8"/><stop offset=".616" stop-color="#c3d3e6"/><stop offset=".858" stop-color="#95b6e4"/><stop offset=".976" stop-color="#7ca6e3"/></linearGradient><linearGradient id="w" gradientUnits="userSpaceOnUse" x1="854.893" x2="792.328" y1="170.006" y2="115.517"><stop offset=".143" stop-color="#ffaba0"/><stop offset=".218" stop-color="#f8a79e"/><stop offset=".323" stop-color="#e69c97"/><stop offset=".447" stop-color="#c88b8d"/><stop offset=".584" stop-color="#9e727f"/><stop offset=".731" stop-color="#69536c"/><stop offset=".868" stop-color="#313259"/></linearGradient><linearGradient id="x" gradientUnits="userSpaceOnUse" x1="802.687" x2="898.177" y1="191.581" y2="191.581"><stop offset=".206" stop-color="#fff9e9"/><stop offset=".281" stop-color="#fcf7e8"/><stop offset=".341" stop-color="#f2f2e4"/><stop offset=".396" stop-color="#e1e9dd"/><stop offset=".448" stop-color="#c9dcd3"/><stop offset=".497" stop-color="#abcbc7"/><stop offset=".545" stop-color="#85b7b8"/><stop offset=".591" stop-color="#589fa6"/><stop offset=".635" stop-color="#268392"/><stop offset=".643" stop-color="#1c7e8e"/></linearGradient><linearGradient id="y" gradientUnits="userSpaceOnUse" x1="1129.055" x2="832.801" y1="384.566" y2="499.215"><stop offset="0" stop-color="#ff593b"/><stop offset=".389" stop-color="#fd593b"/><stop offset=".529" stop-color="#f6573c"/><stop offset=".629" stop-color="#eb553e"/><stop offset=".71" stop-color="#da5240"/><stop offset=".779" stop-color="#c44e44"/><stop offset=".84" stop-color="#a84948"/><stop offset=".896" stop-color="#88424c"/><stop offset=".947" stop-color="#623b52"/><stop offset=".992" stop-color="#393458"/><stop offset="1" stop-color="#313259"/></linearGradient><clipPath id="z"><path d="m719.038 353.767-85.447 79.791c-6.055 5.654-15.547 5.329-21.201-.726L447.963 256.748c-5.654-6.055-5.329-15.547.726-21.201l85.447-79.791c6.055-5.654 15.547-5.329 21.201.726l164.427 176.084c5.653 6.055 5.329 15.547-.726 21.201z"/></clipPath><linearGradient id="A" gradientTransform="matrix(.467 .469 .4811 -.479 -773.295 4812.5205)" gradientUnits="userSpaceOnUse" x1="-3357.903" x2="-3390.143" y1="5919.299" y2="6488.085"><stop offset="0" stop-color="#fff9e9"/><stop offset=".154" stop-color="#f1f2e5" stop-opacity=".737"/><stop offset=".399" stop-color="#e1eae0" stop-opacity=".32"/><stop offset=".587" stop-color="#dbe7de" stop-opacity="0"/></linearGradient><linearGradient id="B" gradientTransform="matrix(.467 .4691 .4786 -.4766 -763.7537 4802.8442)" gradientUnits="userSpaceOnUse" x1="-3475.664" x2="-3500.893" y1="5947.644" y2="6392.744"><stop offset="0" stop-color="#fff9e9"/><stop offset=".16" stop-color="#f6f4e6" stop-opacity=".769"/><stop offset=".691" stop-color="#dbe7de" stop-opacity="0"/></linearGradient><linearGradient id="C" gradientUnits="userSpaceOnUse" x1="763.397" x2="980.446" y1="681.166" y2="457.183"><stop offset=".206" stop-color="#fff9e9"/><stop offset=".358" stop-color="#fdf8e8"/><stop offset=".448" stop-color="#f4f3e5"/><stop offset=".521" stop-color="#e6ebdf"/><stop offset=".586" stop-color="#d2e1d7"/><stop offset=".645" stop-color="#b8d2cc"/><stop offset=".7" stop-color="#98c1c0"/><stop offset=".752" stop-color="#71acb0"/><stop offset=".8" stop-color="#46959f"/><stop offset=".84" stop-color="#1c7e8e"/></linearGradient><linearGradient id="D" gradientUnits="userSpaceOnUse" x1="832.42" x2="940.401" y1="36.596" y2="223.475"><stop offset="0" stop-color="#fff9e9"/><stop offset=".228" stop-color="#e6e9e8"/><stop offset=".709" stop-color="#a6c0e5"/><stop offset="1" stop-color="#7ca6e3"/></linearGradient><linearGradient id="E" gradientUnits="userSpaceOnUse" x1="890.09" x2="823.185" y1="122.508" y2="77.231"><stop offset=".355" stop-color="#ffaba0"/><stop offset=".413" stop-color="#fdaa9f"/><stop offset=".441" stop-color="#f5a59d"/><stop offset=".463" stop-color="#e89e98"/><stop offset=".481" stop-color="#d69392"/><stop offset=".497" stop-color="#be8589"/><stop offset=".512" stop-color="#a0737f"/><stop offset=".526" stop-color="#7d5e73"/><stop offset=".538" stop-color="#554765"/><stop offset=".547" stop-color="#313259"/></linearGradient><path d="m399.785 910.831 216.906-592.158c5.738-15.664-1.181-33.142-16.086-40.634C498.649 226.788 375.249 281.171 344.281 391L220.628 829.554z" fill="url(#p)"/><path d="M442.62 826.306 243 718.719l-59.386 187.576 23.548 14.294 149.471 78.075z" fill="url(#q)"/><path d="M0 836.731s46.1-82.465 88.308-110.491c48.286-32.062 148.948 48.767 148.948 48.767s34.038 31.454 59.801 93.159l119.605 23.889S389.429 998.8 330.423 1083.44z" fill="url(#r)"/><path d="M358.806 1042.104a4.976 4.976 0 0 1-2.987-.994L26.092 794.921a5 5 0 1 1 5.983-8.013l329.727 246.189a5 5 0 0 1-2.996 9.007zm-11.259 15.079a4.976 4.976 0 0 1-2.987-.994L14.833 810a5 5 0 1 1 5.983-8.013l329.727 246.189a5 5 0 0 1-2.996 9.007z" fill="#fff9e9"/><path d="M593.212 1102.59 492.593 545.206c-12.757-70.668-85.708-113.154-153.468-89.379-56.95 19.982-89.266 80.095-74.519 138.62L397.382 1121.4z" fill="#ffaba0"/><path d="m921.065 596.189-501.56-153.522c-54.297-16.62-113.653 8.74-141.581 60.491-34.141 63.263-8.874 141.232 54.728 168.875l387.889 168.585z" fill="url(#s)"/><path d="m557.065 902.35-205.96 35.391 46.277 183.66 27.42-2.634 166.48-26.865z" fill="#fff9e9"/><path d="M208.635 1175.513s-12.397-93.659 4.656-141.368c19.509-54.579 148.526-50.036 148.526-50.036s46.093 4.839 103.653 38.87l110.131-52.415s42.042 101.827 45.399 204.949z" fill="url(#t)"/><path d="M616.024 1126.401H204.528a5 5 0 0 1 0-10h411.496a5 5 0 0 1 0 10zm0 18.818H204.528a5 5 0 0 1 0-10h411.496a5 5 0 0 1 0 10z" fill="#fff9e9"/><path d="M532.111 766.779a2.502 2.502 0 0 1-2.458-2.057l-27.852-154.434a2.5 2.5 0 1 1 4.921-.887l27.852 154.434a2.5 2.5 0 0 1-2.463 2.944z" fill="#313259"/><path d="M1012.856 708.321 664.652 321.794c-58.143-64.542-152.569-81.61-229.627-41.505-8.814 4.587-12.913 14.958-9.616 24.331l169.048 480.674z" fill="url(#u)"/><path d="M756.148 100.372c-1.767 23.038-11.003 40.985-29.939 59.008 28.389 22.973 71.2 35.761 111.042 34.551a246.088 246.088 0 0 0-2.043-51.626c-48.362-1.095-78.211-32.276-79.06-41.933z" fill="url(#v)"/><path d="m823.206 192.82-17.951-37.232c-7.795-16.168-1.007-35.594 15.161-43.39 16.168-7.795 35.594-1.007 43.389 15.161l17.951 37.232c7.795 16.168 1.007 35.594-15.161 43.39-16.168 7.794-35.594 1.007-43.389-15.161z" fill="url(#w)"/><path d="m522.226 709.454 9.887 54.824c54 27 147.491 88.802 230.64 90.442 103.096 2.033 211.002-46.378 273.339-120.604l-23.237-25.795-294.29-326.68C664.296 516.27 522.226 709.454 522.226 709.454z" fill="#313259"/><path d="M876.983 143.233c-13.134 5.866-32.358 14.36-44.084 22.691s-21.987 19.34-27.054 32.803c-5.066 13.463-4.289 29.569 4.17 41.203l53.947-49.867c6.773-6.261 31.286-17.094 33.914-25.936 2.629-8.841-12.663-18.743-20.893-20.894z" fill="url(#x)"/><path d="M925.901 162.581c91.676 62.853 163.473 157.658 187.77 266.122 24.297 108.465 7.621 254.485-99.236 320.943-74.205-58.409-122.486-126.665-196.491-184.916-7.883-76.393-.767-157.786-8.65-234.179-2.34-22.677-4.683-45.506-2.855-68.23s8.092-45.583 21.515-64.009c23.311-31.999 72.059-53.48 97.947-35.731z" fill="url(#y)"/><path d="M1030.964 466.379c16.464-29.709 18.892-65.865 11.425-99s-24.183-63.562-44.049-91.112c-22.396-31.059-50.156-59.845-85.615-74.298s-79.767-11.803-107.857 14.219c-21.612 20.021-30.788 50.995-29.262 80.415s12.669 57.558 26.541 83.548c17.706 33.174 41.208 64.835 74.282 82.725 48.714 26.351 109.557 18.054 154.535 3.503zm-16.529 288.267c-1.097 0-2.19-.36-3.093-1.071-37.394-29.434-68.653-61.766-98.884-93.034-29.938-30.966-60.895-62.985-97.606-91.882a5 5 0 0 1-1.881-3.416c-.863-8.365-1.572-17.048-2.167-26.544a4.996 4.996 0 0 1 .471-2.452 47.184 47.184 0 0 1 7.962-11.803 5 5 0 0 1 6.824-.498c30.732 24.891 89.774 72.813 139.9 114.111 88.103 72.585 90.112 76.379 91.191 78.418a5 5 0 0 1-.837 5.829 208.739 208.739 0 0 1-39.24 31.587 4.99 4.99 0 0 1-2.64.755zM822.705 562.12c36.51 28.963 67.223 60.731 96.942 91.47 29.245 30.249 59.458 61.499 95.109 89.932a198.787 198.787 0 0 0 31.071-24.86c-16.143-15.446-98.87-83.902-222.187-183.806a37.031 37.031 0 0 0-2.771 4.547 648.13 648.13 0 0 0 1.836 22.717zm225.785 159.325h.01z" fill="#313259"/><path d="m606.222 399.244 1.666-2.839c20.202 47.029 53.877 88.182 95.978 117.291 5.132 3.548 10.88 7.059 17.105 6.639 6.122-.413 11.276-4.526 15.99-8.454 7.149-5.959 14.894-13.083 15.172-22.385.209-7.016-3.973-13.317-8.005-19.063a3012.69 3012.69 0 0 0-32-44.73c-16.641-22.818-34.351-46.071-59.037-59.789-9.358-5.2-20.364-8.949-30.697-6.152-8.857 2.398-16.182 9.783-18.506 18.66s.439 18.904 2.334 20.822zm81.66-84.973c4.852-1.59 10.323.427 14.081 3.883s6.114 8.149 8.203 12.808a196.438 196.438 0 0 1 15.547 55.059c.456 3.525.811 7.155-.09 10.593s-3.31 6.689-6.737 7.631c-3.921 1.078-7.975-1.028-11.306-3.359-13.327-9.325-23.051-23.668-26.781-39.499-3.73-15.83-1.431-33.006 7.083-47.116z" fill="#ffaba0"/><path d="m704.359 367.474-77.595 72.458c-6.055 5.654-15.547 5.329-21.201-.726L441.136 263.123c-5.654-6.055-5.329-15.547.726-21.201l77.595-72.458c6.055-5.654 15.547-5.329 21.201.726l164.427 176.084c5.653 6.054 5.328 15.546-.726 21.2z" fill="#1c7e8e"/><path d="m719.038 353.767-85.447 79.791c-6.055 5.654-15.547 5.329-21.201-.726L447.963 256.748c-5.654-6.055-5.329-15.547.726-21.201l85.447-79.791c6.055-5.654 15.547-5.329 21.201.726l164.427 176.084c5.653 6.055 5.329 15.547-.726 21.201z" fill="#dbe7de"/><g clip-path="url(#z)"><path d="m624.688 448.555 43.15-295.222-51.339-51.56-44.148 302.051 41.414 41.593c2.858 2.87 5.019 5.04 10.923 3.138z" fill="url(#A)"/><path d="m566.401 122.696-63.383 63.112-22.272 124.258 51.344 51.565z" fill="url(#B)"/></g><path d="M763.759 479.908c2.471-23.587-.76-48.829-14.575-67.926-6.257-8.65-14.393-15.67-22.449-22.605-19.329-16.639-36.362-27.744-55.691-44.382-6.376-5.488-13.119-11.164-21.294-12.886s-17.513 2.335-19.128 10.677c-2.297 11.865 2.204 23.088 6.244 29.264 26.77 40.927 49.938 67.169 76.707 108.096 4.418 6.755 9.406 13.961 17.004 16.41 6.549 2.111 13.84.124 19.629-3.643s10.359-9.148 13.553-13.005z" fill="#ffaba0"/><g fill="#313259"><path d="M728.997 388.22c-.477 0-.958-.136-1.384-.42l-27-18a2.5 2.5 0 1 1 2.774-4.16l27 18a2.5 2.5 0 0 1-1.39 4.58zm-62.997 99c-.64 0-1.28-.244-1.768-.732-1.114-1.114-27.392-27.496-36.468-45.649a2.5 2.5 0 1 1 4.472-2.236c8.714 17.428 35.265 44.083 35.532 44.351A2.5 2.5 0 0 1 666 487.22zm9-63c-.64 0-1.28-.244-1.768-.732l-18-18a2.498 2.498 0 0 1 0-3.535 2.498 2.498 0 0 1 3.535 0l18 18A2.498 2.498 0 0 1 675 424.22z"/></g><path d="M803.731 427.503 686.95 522.177s86.898 137.856 131.835 175.981c59.212 50.236 139.912 38.309 171.332-17.521 57.318-101.852-186.386-253.134-186.386-253.134z" fill="url(#C)"/><path d="M1010.525 361.738c26.579 69.071 28.931 143.237 15.19 215.959-9.361 49.54-26.24 122.833-86.37 143.928-86.611 30.384-117.619-127.284-136.658-222.67-6.8-34.069-26.816-136.25-27.244-170.987-.89-72.172 34.787-106.905 62.338-113.702 66.849-16.496 142.017 67.622 172.744 147.472z" fill="#fff9e9"/><path d="M755.115 74.089c10.397-29.714 26.012-58 65.5-58s50.77 32.545 49.5 64c-2.046 50.651-25.926 80-81.5 80-39.488 0-47.588-45.739-33.5-86z" fill="#ffaba0"/><path d="M772.098 124.372a2.5 2.5 0 1 1 0-5c8.311 0 16.465-9.228 16.547-9.321a2.5 2.5 0 0 1 3.772 3.282c-.393.451-9.718 11.039-20.319 11.039z" fill="#313259"/><path d="M911.059 40.607c-3.017-4.254-6.39-8.42-10.871-11.088s-10.297-3.603-14.932-1.212c-3.97-14.375-17.386-23.381-31.51-26.749s-53.001-2.68-79.996 16.53c-11.518 8.197-17.34 23.014-9.29 33.875 4.355-6.914 9.181-12.636 15.022-15.294 13.449 7.266 30.71 6.919 44.134-.28 2.444.678 4.871 1.404 7.271 2.202-1.072 11.722-.374 24.675 4.774 36.283 6.031 13.601 19.351 24.808 34.293 25.458-.988 4.512-2.308 8.973-3.768 13.287-14.636 8.85-23.982 26.114-22.998 43.187s12.321 35.83 29.961 44.903l95.175-31.233c-32.475-52.34-30.22-91.743-57.265-129.869z" fill="url(#D)"/><path d="m745.11 108.633 25.622 5.126c7.193 1.439 14.191-3.226 15.63-10.419 1.439-7.193-3.226-14.191-10.419-15.63l-25.622-5.126c-7.193-1.439-14.191 3.226-15.63 10.419-1.439 7.193 3.226 14.191 10.419 15.63z" fill="#ffaba0"/><circle cx="861.959" cy="103.524" fill="#ffaba0" r="26.146"/><path d="m869.2 92.059-21.479 18.088 18.339 10.215z" fill="url(#E)"/></svg></g><g transform="translate(1618.8 1406.3999999999999) rotate(0.0 455.4 288.0) scale(1.4297981359878054 1.4282632467696703)"><svg width="637.013" height="403.287" viewBox="0 0 637.013 403.287"><g><linearGradient id="F" gradientUnits="userSpaceOnUse" x1="159.485" y1="-30.562" x2="649.971" y2="535.909"><stop offset="0" style="stop-color:#fff9e9"/><stop offset=".193" style="stop-color:#fbf7e9"/><stop offset=".377" style="stop-color:#f0f0ea"/><stop offset=".557" style="stop-color:#dce6ea"/><stop offset=".735" style="stop-color:#c1d6eb"/><stop offset=".911" style="stop-color:#9fc3ed"/><stop offset=".959" style="stop-color:#94bded"/></linearGradient><path style="fill:url(#F)" d="M617 240.96c-72 144-315.69 208.372-477 126-116.803-59.645-135-132-135-132s72 60 264.26 31.16C500.76 231.4 588.1 8.52 589.45 5.04c.01-.03.02-.04.02-.04S674.63 125.7 617 240.96z"/><path style="fill:#fff9e9" d="M171.025 278.897c-47.625 0-83.029-6.136-107.301-12.716-42.597-11.548-61.156-26.739-61.925-27.379a5 5 0 0 1 6.397-7.686c.416.338 18.443 14.785 59.007 25.646 37.795 10.121 103.401 19.102 201.315 4.414 52.149-7.821 101.126-26.067 145.569-54.23 35.68-22.61 68.567-51.646 97.749-86.3C562.068 60.992 583.885 5.562 584.789 3.231a5.176 5.176 0 0 1 1.146-1.767 5.001 5.001 0 0 1 8.104 5.57c-1.687 4.294-24.201 60.256-74.553 120.051-29.841 35.437-63.501 65.148-100.045 88.306-45.626 28.913-95.904 47.644-149.438 55.673-37.529 5.63-70.448 7.833-98.978 7.833z"/></g></svg></g><g transform="translate(208.79999999999998 348.0) rotate(0.0 153.60000000000002 153.59999999999997) scale(1.4315805170839007 1.4315805170839)"><svg width="214.588" height="214.588" viewBox="0 0 214.588 214.588"><linearGradient id="G" gradientUnits="userSpaceOnUse" x1="163.112" x2="10.675" y1="51.99" y2="203.022"><stop offset="0" stop-color="#e6efe8"/><stop offset=".514" stop-color="#f8fbf9"/><stop offset=".887" stop-color="#fff"/></linearGradient><circle cx="107.294" cy="107.294" fill="url(#G)" r="107.294"/><path d="M64.094 64.094h86.4v86.4h-86.4z" fill="#1c7e8e"/></svg></g><g transform="translate(1858.8 122.39999999999999) rotate(0.0 158.9999999999999 163.20000000000002) scale(1.430956355831146 1.4310517177881834)"><svg width="222.229" height="228.084" viewBox="0 0 222.229 228.084"><linearGradient id="H" gradientUnits="userSpaceOnUse" x1="75.941" x2="218.258" y1="244.087" y2="-246.937"><stop offset="0" stop-color="#f991b9"/><stop offset=".022" stop-color="#fa9abf"/><stop offset=".135" stop-color="#fcc6da"/><stop offset=".236" stop-color="#fee5ee"/><stop offset=".322" stop-color="#fff8fb"/><stop offset=".381" stop-color="#fff"/></linearGradient><path d="M123.831.242C44.538-4.127 0 51.246 0 114.163s51.004 113.921 113.921 113.921c50.553 0 93.415-32.927 108.308-78.505l-49.021-25.106c-4.89 28.317-29.573 49.857-59.287 49.857-33.229 0-60.167-26.938-60.167-60.167s26.938-60.167 60.167-60.167c3.897 0 7.707.37 11.398 1.078z" fill="url(#H)"/></svg></g><g transform="translate(460.79999999999995 2280.0) rotate(0.0 1138.8000000000002 7.2000000000000455) scale(1.5261835360337725 1.440000000000009)"><svg width="1492.35" height="10" viewBox="0 0 1492.35 10"><path d="M1487.35 10H5A5 5 0 0 1 5 0h1482.35a5 5 0 0 1 0 10z" fill="#313259"/></svg></g></svg>