<svg xmlns="http://www.w3.org/2000/svg" viewBox="0 0 3000 3000" width="3000" height="3000"><g transform="translate(2128.5 397.5) rotate(0.0 345.0 183.0) scale(1.8034170833257102 1.7943463382587979)"><svg width="382.607" height="203.974" viewBox="0 0 382.607 203.974"><linearGradient id="a" gradientUnits="userSpaceOnUse" x1="419.93" x2="-150.233" y1="248.91" y2="-117.496"><stop offset="0" stop-color="#fff9e7" stop-opacity="0"/><stop offset=".11" stop-color="#eff0e7" stop-opacity=".109"/><stop offset=".344" stop-color="#c7d9e7" stop-opacity=".388"/><stop offset=".682" stop-color="#88b4e7" stop-opacity=".832"/><stop offset=".804" stop-color="#70a7e8"/></linearGradient><linearGradient id="b" gradientUnits="userSpaceOnUse" x1="168.031" x2="413.197" y1="84.551" y2="84.551"><stop offset="0" stop-color="#fff9e7"/><stop offset="1" stop-color="#e6efe8" stop-opacity="0"/></linearGradient><linearGradient id="c" gradientUnits="userSpaceOnUse" x1="168.031" x2="337.49" y1="44.239" y2="44.239"><stop offset="0" stop-color="#f9e79b"/><stop offset="1" stop-color="#fff9e7"/></linearGradient><linearGradient id="d" gradientUnits="userSpaceOnUse" x1="248.998" x2="-36.439" y1="261.386" y2="-11.861"><stop offset=".137" stop-color="#fff9e7" stop-opacity="0"/><stop offset=".228" stop-color="#eff0e7" stop-opacity=".109"/><stop offset=".423" stop-color="#c7d9e7" stop-opacity=".388"/><stop offset=".703" stop-color="#88b4e7" stop-opacity=".832"/><stop offset=".804" stop-color="#70a7e8"/></linearGradient><rect fill="url(#a)" height="203.974" rx="10" width="382.607"/><path d="M327.49 173.812H178.031c-7.72 0-14-6.28-14-14v-20.309c0-7.72 6.28-14 14-14H327.49c7.72 0 14 6.28 14 14v20.309c0 7.72-6.28 14-14 14zm-149.459-40.309c-3.309 0-6 2.691-6 6v20.309c0 3.309 2.691 6 6 6H327.49c3.309 0 6-2.691 6-6v-20.309c0-3.309-2.691-6-6-6z" fill="#fff9e7"/><rect fill="url(#b)" height="34.871" rx="10.077" width="169.459" x="168.031" y="67.116"/><rect fill="url(#c)" height="20.154" rx="10.077" width="169.459" x="168.031" y="34.161"/><rect fill="url(#d)" height="147.806" rx="10" width="136.732" x="13.464" y="27.454"/></svg></g><g transform="translate(1072.5 427.5) rotate(0.0 272.25 210.75) scale(1.7973796877939932 1.8000358726010197)"><svg width="302.941" height="234.162" viewBox="0 0 302.941 234.162"><linearGradient id="f" gradientUnits="userSpaceOnUse" x1="317.44" x2="-53.882" y1="-250.13" y2="571.429"><stop offset=".017" stop-color="#ff74ba"/><stop offset=".944" stop-color="#fff9e7"/></linearGradient><linearGradient id="e" gradientTransform="matrix(1 0 0 -1 3861.751 123.402)" gradientUnits="userSpaceOnUse" x1="-3729.004" x2="-3894.151" y1="60.689" y2="62.771"><stop offset="0" stop-color="#f9e79b"/><stop offset="1" stop-color="#fff9e7"/></linearGradient><linearGradient xmlns:xlink="http://www.w3.org/1999/xlink" id="g" gradientTransform="matrix(1 0 0 -1 3861.751 344.923)" x1="-3880.26" x2="-3723.358" xlink:href="#e" y1="172.461" y2="172.461"/><linearGradient id="h" gradientTransform="matrix(-1 -0 0 -1 397.02 234.162)" gradientUnits="userSpaceOnUse" x1="380.828" x2="28.881" y1="-57.544" y2="279.552"><stop offset="0" stop-color="#fff9e7"/><stop offset=".755" stop-color="#e6efe8" stop-opacity="0"/></linearGradient><rect fill="url(#f)" height="234.162" rx="10" width="302.941"/><rect fill="url(#e)" height="19.506" rx="9.753" transform="matrix(-1 -0 0 -1 104.981 123.402)" width="52.712" x="26.135" y="51.948"/><path d="M92.516 131.834H59.309c-8.134 0-14.752-6.618-14.752-14.753s6.618-14.753 14.752-14.753h33.207c8.135 0 14.753 6.618 14.753 14.753s-6.618 14.753-14.753 14.753zm-33.207-19.506c-2.62 0-4.752 2.132-4.752 4.753s2.132 4.753 4.752 4.753h33.207c2.621 0 4.753-2.132 4.753-4.753s-2.132-4.753-4.753-4.753z" fill="#ff74ba"/><rect fill="url(#g)" height="19.506" rx="9.753" transform="matrix(-1 -0 0 -1 104.981 344.923)" width="52.712" x="26.135" y="162.709"/><rect fill="url(#h)" height="156.593" rx="10" transform="matrix(-1 0 -0 -1 397.02 234.162)" width="156.593" x="120.213" y="38.785"/></svg></g><g transform="translate(1737.0 87.0) rotate(0.0 357.0 231.0) scale(1.7997625523355323 1.8039687312086592)"><svg width="396.719" height="256.102" viewBox="0 0 396.719 256.102"><linearGradient id="i" gradientUnits="userSpaceOnUse" x1="365.304" x2="145.383" y1="-241.317" y2="245.263"><stop offset=".118" stop-color="#ff74ba"/><stop offset=".944" stop-color="#fff9e7"/></linearGradient><linearGradient id="j" gradientUnits="userSpaceOnUse" x1="234.742" x2="215.693" y1="-52.882" y2="139.483"><stop offset="0" stop-color="#fff9e7" stop-opacity="0"/><stop offset=".11" stop-color="#eff0e7" stop-opacity=".109"/><stop offset=".344" stop-color="#c7d9e7" stop-opacity=".388"/><stop offset=".682" stop-color="#88b4e7" stop-opacity=".832"/><stop offset=".804" stop-color="#70a7e8"/></linearGradient><linearGradient id="k" gradientUnits="userSpaceOnUse" x1="196.012" x2="29.142" y1="4.908" y2="140.417"><stop offset="0" stop-color="#fff9e7"/><stop offset="1" stop-color="#e6efe8" stop-opacity="0"/></linearGradient><rect fill="url(#i)" height="256.102" rx="10" width="396.719"/><rect fill="#fff9e7" height="55.906" rx="10" width="343.313" x="26.703" y="173.821"/><rect fill="#ff74ba" height="24.689" rx="10" width="200.769" x="169.247" y="132.801"/><rect fill="#fff9e7" height="24.689" rx="10" width="200.769" x="169.247" y="91.782"/><rect fill="#fff9e7" height="42.371" rx="21.185" width="200.769" x="169.247" y="26.375"/><rect fill="url(#j)" height="42.371" rx="21.185" width="63.419" x="193.086" y="26.375"/><rect fill="url(#k)" height="131.115" rx="10" width="124.289" x="26.703" y="26.375"/><g fill="#fff9e7"><path d="M128.847 58.273H48.848c-2.762 0-5-2.238-5-5s2.238-5 5-5h79.999c2.762 0 5 2.238 5 5s-2.238 5-5 5zm0 25.774H48.848c-2.762 0-5-2.238-5-5s2.238-5 5-5h79.999c2.762 0 5 2.238 5 5s-2.238 5-5 5zm0 25.772H48.848c-2.762 0-5-2.238-5-5s2.238-5 5-5h79.999c2.762 0 5 2.238 5 5s-2.238 5-5 5zm0 25.773H48.848c-2.762 0-5-2.238-5-5s2.238-5 5-5h79.999c2.762 0 5 2.238 5 5s-2.238 5-5 5z"/></g></svg></g><g transform="translate(1201.5 163.5) rotate(0.0 597.0 1162.5) scale(1.80120110244369 1.8027042890405658)"><svg width="662.891" height="1289.729" viewBox="0 0 662.891 1289.729"><linearGradient id="p" gradientTransform="matrix(.53864905 .41175381 -.53850044 .41155255 -5.433 1373.812)" gradientUnits="userSpaceOnUse" x1="-1070.568" x2="-1078.609" y1="-1494.232" y2="-1622.7"><stop offset=".219" stop-color="#c96363"/><stop offset=".907" stop-color="#31325c"/></linearGradient><linearGradient id="q" gradientUnits="userSpaceOnUse" x1="232.46" x2="138.533" y1="244.646" y2="290.78"><stop offset="0" stop-color="#fff9e7"/><stop offset=".21" stop-color="#e5eae7"/><stop offset=".655" stop-color="#a5c5e7"/><stop offset="1" stop-color="#70a7e8"/></linearGradient><linearGradient id="l" gradientTransform="matrix(-.84900648 .10919704 .10065008 .78255387 -2518.217 229.183)" gradientUnits="userSpaceOnUse" x1="-3167.076" x2="-3226.937" y1="515.782" y2="490.749"><stop offset=".396" stop-color="#c96363"/><stop offset=".907" stop-color="#31325c"/></linearGradient><linearGradient id="r" gradientUnits="userSpaceOnUse" x1="190.858" x2="221.28" y1="210.794" y2="265.461"><stop offset="0" stop-color="#ff593b"/><stop offset=".389" stop-color="#fd583b"/><stop offset=".529" stop-color="#f6573c"/><stop offset=".629" stop-color="#ea553e"/><stop offset=".71" stop-color="#d95140"/><stop offset=".779" stop-color="#c34d44"/><stop offset=".84" stop-color="#a84848"/><stop offset=".896" stop-color="#87424e"/><stop offset=".947" stop-color="#623b54"/><stop offset=".992" stop-color="#39335a"/><stop offset="1" stop-color="#31325c"/></linearGradient><linearGradient id="m" gradientUnits="userSpaceOnUse" x1="192.004" x2="477.916" y1="1036.089" y2="1036.089"><stop offset=".157" stop-color="#ff74ba"/><stop offset=".944" stop-color="#fff9e7"/></linearGradient><linearGradient xmlns:xlink="http://www.w3.org/1999/xlink" id="s" x1="659.045" x2="384.874" xlink:href="#l" y1="817.554" y2="731.758"/><linearGradient xmlns:xlink="http://www.w3.org/1999/xlink" id="t" x1="303.957" x2="605.516" xlink:href="#m" y1="965.423" y2="965.423"/><linearGradient id="n"><stop offset="0" stop-color="#3ade9e"/><stop offset="1" stop-color="#31325c"/></linearGradient><linearGradient xmlns:xlink="http://www.w3.org/1999/xlink" id="u" gradientUnits="userSpaceOnUse" x1="212.487" x2="89.976" xlink:href="#n" y1="341.926" y2="337.954"/><linearGradient xmlns:xlink="http://www.w3.org/1999/xlink" id="v" gradientUnits="userSpaceOnUse" x1="290.577" x2="-19.27" xlink:href="#n" y1="500.766" y2="889.12"/><linearGradient id="w" gradientUnits="userSpaceOnUse" x1="185.398" x2="664.094" y1="523.637" y2="390.694"><stop offset=".323" stop-color="#3ade9e" stop-opacity="0"/><stop offset=".808" stop-color="#31325c"/></linearGradient><linearGradient id="o" gradientUnits="userSpaceOnUse" x1="100.235" x2="198.706" y1="230.406" y2="407.354"><stop offset="0" stop-color="#fff9e7"/><stop offset=".169" stop-color="#e5eae7"/><stop offset=".527" stop-color="#a5c5e7"/><stop offset=".804" stop-color="#70a7e8"/></linearGradient><linearGradient xmlns:xlink="http://www.w3.org/1999/xlink" id="x" x1="126.436" x2="203.739" xlink:href="#o" y1="250.266" y2="389.176"/><rect fill="url(#p)" height="90.107" rx="25.51" transform="matrix(.91735907 .39806071 -.39806071 .91735907 144.347 -63.231)" width="51.02" x="198.945" y="270.97"/><path d="M233.961 196.661s37.115 3.589 50.243 33.123 13.236 62.682-5.517 72.164c-13.484 6.818-34.635 4.598-44.561-18.669s-.166-86.619-.166-86.619z" fill="#c96363"/><path d="M282.695 280.601c-6.592 0-9.07-2.824-9.379-3.21l3.91-3.117s-.021-.033-.074-.087c.022.023 2.319 2.293 9.555 1.04a2.5 2.5 0 0 1 .854 4.927c-1.826.316-3.442.448-4.865.448z" fill="#31325c"/><path d="M258.919 203.612s15.742 15.764 11.658 36.791-18.048 22.241-26.193 18.925l3.785 30.879s-17.033 21.844-35.116 22.976c-22.285 1.395-44.24-26.831-45.589-60.401-1.103-27.444 11.415-41.862 28.024-51.308 18.024-10.252 49.774-8.022 63.431 2.137z" fill="url(#q)"/><path d="M267.42 257.795a2.49 2.49 0 0 1-1.72-.686l-22.036-20.886a2.5 2.5 0 1 1 3.439-3.629l22.036 20.886a2.5 2.5 0 0 1-1.719 4.314zm6.989-15.752c-.417 0-.839-.104-1.228-.324l-23.187-13.098a2.5 2.5 0 0 1 2.459-4.353l23.187 13.098a2.5 2.5 0 0 1-1.232 4.677z" fill="#ff74ba"/><ellipse cx="242.078" cy="275.377" fill="#c96363" rx="17.397" ry="17.961" transform="matrix(.99183 -.12756664 .12756664 .99183 -33.153 33.133)"/><path d="m236.294 268.18 15.761 10.501-11.208 8.516z" fill="url(#l)"/><ellipse cx="200.641" cy="228.373" fill="url(#r)" rx="20.329" ry="24.094"/><rect fill="#c96363" height="18.401" rx="9.201" transform="matrix(.95523706 -.29584143 .29584143 .95523706 -62.976 96.078)" width="32.523" x="269.745" y="246.944"/><path d="M308.607 859.057s-36.836 104.388-46.331 130.986-56.799 52.68-70.016 98.064c-8.348 28.663 190.134 199.371 190.134 199.371s37.309-39.275 49.191-57.771-5.32-72.3-45.759-126.982c-40.44-54.682 92.091-318.027 92.091-318.027l-169.309 74.359z" fill="url(#m)"/><path d="M191.564 1089.528s7.892-32.287 47.437 0 156.588 156.933 147.496 190.435c-8.399 30.949-60.185-17.27-96.588-66.25s-96.687-84.865-98.346-124.185zm222.974 164.719a2.5 2.5 0 0 1-2.415-3.155c3.688-13.588-16.788-48.463-56.176-95.684-31.833-38.163-72.076-79.229-93.608-95.525-27.022-20.45-44.094-12.287-44.808-11.932a2.504 2.504 0 0 1-3.354-1.098 2.493 2.493 0 0 1 1.073-3.351c.817-.423 20.382-10.101 50.106 12.394 21.792 16.491 62.389 57.896 94.431 96.31 29.034 34.809 62.521 80.447 57.162 100.194a2.504 2.504 0 0 1-2.411 1.847z" fill="#31325c"/><path d="M577.117 555.724c29.957 7.5 71.015 28.633 84.631 101.513 16.246 86.952-145.538 267.508-176.469 311.535-30.93 44.027-138.99-7.039-102.079-77.588s128.356-253.741 148.511-282.595 27.531-57.341 45.406-52.866z" fill="url(#s)"/><path d="M559.499 739.06c-55.779-35.985-107.82 3.35-107.82 3.35l-86.154 156.169c-18.631 7.717-46.118 21.334-59.118 38.736-20.685 27.689 96.438 269.639 96.438 269.639s68.888-12.895 92.406-36.413c22.756-22.756 10.987-146.571 1.727-188.055 40.426-55.055 108.208-148.4 108.208-148.4s7.207-60.904-45.687-95.028z" fill="url(#t)"/><path d="M425.65 1006.566a2.5 2.5 0 0 1-2.089-3.87l159.266-243.09a2.5 2.5 0 1 1 4.182 2.74l-159.266 243.09a2.496 2.496 0 0 1-2.093 1.13zm-119.243-69.25c8.596-14.474 37.887-17.254 63.781 37.843 27.785 59.12 70.011 207.68 47.574 225.4-22.437 17.719-49.162-7.466-61.537-26.467-12.375-19.002-39.604-109.702-48.736-141.397-9.131-31.695-13-75.313-1.082-95.379z" fill="#31325c"/><path d="M455.998 1194.895a2.5 2.5 0 0 1-1.543-4.469c9.406-7.364 7.057-45.021-6.286-100.731-11.552-48.234-30.005-103.831-44.875-135.201-10.758-22.694-24.577-37.259-39.962-42.12-11.501-3.633-19.998-.592-20.082-.561-1.295.477-2.73-.181-3.212-1.471s.167-2.725 1.455-3.21c.399-.15 9.927-3.644 22.982.361 11.782 3.615 28.865 14.332 43.336 44.859 15.002 31.646 33.597 87.645 45.22 136.178 10.062 42.012 19.011 94.476 4.506 105.833-.457.357-1 .531-1.539.531z" fill="#31325c"/><path d="M424.57 829.536s112.925-89.094 144.804-125.591c31.88-36.497 72.379-99.186 28.471-138.567-24.55-22.018-147.37-29.587-249.406 57.856-95.946 82.223-3.633 251.164 76.131 206.301z" fill="#c96363"/><path d="M41.204 642.572S15.511 743.231 66.326 809.106c51.031 66.154 166.425 97.524 273.838 61.632s138.209-89.657 138.209-89.657 28.581-57.841-8.935-115.289c-56.176-86.023-119.815-79.876-119.815-79.876-39.657-4.685-308.419 56.656-308.419 56.656z" fill="#31325c"/><path d="M139.353 346.86s11.355-22.202 67.763-22.202c37.505 0 51.128 3.84 54.706 19.146 4.175 17.859-115.822 20.363-122.469 3.057z" fill="url(#u)"/><path d="M411.18 443.297s-30.309-122.53-62.578-118.545c-58.302 7.199-147.365 24.179-185.166 19.613-8.002-.967-15.226-1.501-21.828-1.587-9.034-1.515-52.649-7.086-80.462 20.728C29.993 394.66 1.99 494.275.074 541.917c-1.139 28.316 11.023 54.249 30.784 73.087-1.03 19.224-1.372 31.385-1.372 31.385s179.112 111.824 284.049 23.736c104.937-88.089 210.49-36.475 210.49-36.475 21.208-113.601-112.844-190.353-112.844-190.353z" fill="url(#v)"/><path d="M411.18 443.297s-30.309-122.53-62.578-118.545c-58.302 7.199-147.365 24.179-185.166 19.613-8.002-.967-15.226-1.501-21.828-1.587-9.034-1.515-52.649-7.086-80.462 20.728C29.993 394.66 1.99 494.275.074 541.917c-1.139 28.316 11.023 54.249 30.784 73.087-1.03 19.224-1.372 31.385-1.372 31.385s179.112 111.824 284.049 23.736c104.937-88.089 210.49-36.475 210.49-36.475 21.208-113.601-112.844-190.353-112.844-190.353z" fill="url(#w)"/><g fill="#c96363"><path d="M466.797 166.145s-18.305-37.551-18.305-60.355 49.371-50.762 83.176-33.012c48.927 25.69 32.643 21.579-5.299 83.282-10.432 16.965-59.572 10.085-59.572 10.085z"/><path d="M549.487 78.149c2.695-3.686 12.425-6.526 18.094 4.806s-12.032 31.43-23.713 41.567c-11.681 10.136-26.441-2.519 5.62-46.373z"/><path d="M535.992 56.099c2.334-3.924 11.753-7.67 18.467 3.075 6.714 10.746-9.01 32.426-19.681 43.621-10.671 11.194-26.561-.01 1.214-46.696z"/><path d="M518.601 36.186c2.474-4.297 12.682-8.265 20.21 3.747s-9.226 35.702-20.662 47.885c-11.436 12.184-28.985-.507.452-51.633z"/><rect height="25.986" rx="12.259" transform="matrix(.3993252 -.91680935 .91680935 .3993252 261.82 484.859)" width="90.11" x="455.872" y="29.63"/><path d="M491.815 113.466c5.384 8.374-41.962 5.23-41.962 5.23s-8.232-40.123-8.602-72.197c-.099-8.592 8.219-16.322 16.942-14.73 16.8 3.064 16.671 55.335 33.622 81.697z"/></g><path d="M507.208 65.411a2.5 2.5 0 0 1-2.298-3.481l11.393-26.724a2.5 2.5 0 0 1 4.599 1.961l-11.393 26.724a2.5 2.5 0 0 1-2.301 1.52zm22.547 14.48a2.501 2.501 0 0 1-2.309-3.458l10.175-24.532a2.501 2.501 0 0 1 4.62 1.916l-10.175 24.532a2.5 2.5 0 0 1-2.311 1.542zm12.959 18.663a2.499 2.499 0 0 1-2.204-3.676l11.04-20.71a2.5 2.5 0 0 1 4.412 2.352l-11.04 20.71a2.5 2.5 0 0 1-2.208 1.325z" fill="#31325c"/><path d="m450.521 168.196-4.659 119.334s-75.348 27.363-103.376 43.212-106.191 90.825-61.283 155.504c15.261 21.98 30.109 42.464 65.14 36.567 23.037-3.878 62.053-25.148 90.088-43.807 42.822-28.5 142.093-94.925 145.592-143.721 5.682-79.241-40.796-178.154-40.796-178.154-56.777-25.098-90.706 11.065-90.706 11.065z" fill="#3ade9e"/><path d="M442.606 291.519a2.502 2.502 0 0 1-.861-4.848l35.767-13.105a2.5 2.5 0 0 1 1.721 4.694l-35.767 13.105a2.494 2.494 0 0 1-.86.153z" fill="#31325c"/><path d="M214.791 221.89s-15.534-25.315-52.266-26.133c-39.904-.888-70.031 29.855-61.798 51.937 6.924 18.571 15.329 29.496 6.753 35.295-7.191 4.862-63.539-4.472-86.867 10.373-3.63 2.31-2.006 7.852 2.293 8.014 8.978.337 23.872 5.586 46.931 26.031 36.34 32.22 91.351 36.909 115.295 15.231 23.945-21.678 47.638-86.551 29.659-120.748z" fill="url(#o)"/><path d="M188.872 297.834c-13.599-21.852-28.261-76.144 22.822-80.023a55.546 55.546 0 0 0-2.772-3.003c-16.523-2.794-46.059-3.573-61.851 21.455-20.62 32.679 6.393 48.637 2.013 65.268-6.557 24.898-37.904 45.211-86.431 19.78a212.633 212.633 0 0 1 7.183 6.095c31.729 28.131 77.685 35.271 104.776 22.203 9.631-9.28 27.424-30.62 14.259-51.775z" fill="url(#x)"/></svg></g><g transform="translate(616.5 637.5) rotate(0.0 139.5 113.25) scale(1.8047155470746143 1.8018519697066124)"><svg width="154.595" height="125.704" viewBox="0 0 154.595 125.704"><linearGradient id="y" gradientUnits="userSpaceOnUse" x1="-58.325" x2="261.838" y1="-59.249" y2="228.994"><stop offset="0" stop-color="#fff9e7" stop-opacity="0"/><stop offset=".11" stop-color="#eff0e7" stop-opacity=".109"/><stop offset=".344" stop-color="#c7d9e7" stop-opacity=".388"/><stop offset=".682" stop-color="#88b4e7" stop-opacity=".832"/><stop offset=".804" stop-color="#70a7e8"/></linearGradient><linearGradient id="z" gradientUnits="userSpaceOnUse" x1="38.159" x2="193.035" y1="116.788" y2="8.427"><stop offset="0" stop-color="#fff9e7" stop-opacity="0"/><stop offset=".132" stop-color="#eff0e7" stop-opacity=".109"/><stop offset=".413" stop-color="#c7d9e7" stop-opacity=".388"/><stop offset=".818" stop-color="#88b4e7" stop-opacity=".832"/><stop offset=".965" stop-color="#70a7e8"/></linearGradient><rect fill="url(#y)" height="125.704" rx="10" width="154.595"/><g fill="#fff9e7"><path d="M58.607 30.181H14.596a4 4 0 0 1 0-8h44.011a4 4 0 0 1 0 8zm0 27.215H14.596a4 4 0 0 1 0-8h44.011a4 4 0 0 1 0 8zm0 27.216H14.596a4 4 0 0 1 0-8h44.011a4 4 0 0 1 0 8z"/></g><rect fill="url(#z)" height="89.474" rx="10" width="53.351" x="83.747" y="21.491"/></svg></g><g transform="translate(319.5 795.0) rotate(0.0 693.0 1089.0) scale(1.8108983153158098 1.811796140491564)"><svg width="765.366" height="1202.122" viewBox="0 0 765.366 1202.122"><linearGradient id="B" gradientUnits="userSpaceOnUse" x1="195.29" x2="355.776" y1="237.63" y2="464.071"><stop offset=".188" stop-color="#fff9e7"/><stop offset="1" stop-color="#008090"/></linearGradient><linearGradient id="C" gradientUnits="userSpaceOnUse" x1="181.615" x2="396.142" y1="390.492" y2="292.772"><stop offset=".125" stop-color="#fff9e7"/><stop offset="1" stop-color="#008090"/></linearGradient><linearGradient id="D" gradientUnits="userSpaceOnUse" x1="644.623" x2="403.155" y1="817" y2="820.118"><stop offset=".039" stop-color="#ffb4a5"/><stop offset="1" stop-color="#31325c"/></linearGradient><linearGradient id="A" gradientUnits="userSpaceOnUse" x1="286.361" x2="790.906" y1="1012.201" y2="937.045"><stop offset="0" stop-color="#008090"/><stop offset=".772" stop-color="#c7e2cd"/></linearGradient><linearGradient id="E" gradientUnits="userSpaceOnUse" x1="398.597" x2="607.407" y1="828.297" y2="909.678"><stop offset="0" stop-color="#008090"/><stop offset=".973" stop-color="#c7e2cd"/></linearGradient><linearGradient id="F" gradientUnits="userSpaceOnUse" x1="745.571" x2="367.84" y1="641.387" y2="742.63"><stop offset=".061" stop-color="#31325c"/><stop offset=".915" stop-color="#70a7e8"/></linearGradient><linearGradient id="G" gradientUnits="userSpaceOnUse" x1="601.67" x2="373.273" y1="780.083" y2="534.02"><stop offset="0" stop-color="#31325c"/><stop offset="1" stop-color="#70a7e8"/></linearGradient><linearGradient id="H" gradientUnits="userSpaceOnUse" x1="645.276" x2="526.449" y1="179.148" y2="442.056"><stop offset=".085" stop-color="#fff9e7" stop-opacity="0"/><stop offset=".687" stop-color="#008090"/></linearGradient><linearGradient id="I" gradientUnits="userSpaceOnUse" x1="280.599" x2="507" y1="924.863" y2="924.863"><stop offset=".024" stop-color="#ffb4a5"/><stop offset="1" stop-color="#31325c"/></linearGradient><linearGradient id="J" gradientUnits="userSpaceOnUse" x1="139.224" x2="271.373" y1="927.329" y2="896.248"><stop offset="0" stop-color="#008090"/><stop offset=".899" stop-color="#c7e2cd"/></linearGradient><linearGradient xmlns:xlink="http://www.w3.org/1999/xlink" id="K" x1="380.797" x2="173.748" xlink:href="#A" y1="1135.686" y2="1001.156"/><linearGradient id="L" gradientUnits="userSpaceOnUse" x1="312.212" x2="-8.907" y1="1266.958" y2="818.639"><stop offset=".288" stop-color="#e6efe8"/><stop offset=".748" stop-color="#fff9e7"/></linearGradient><clipPath id="M"><path d="M42.839 856.02c8.081-20.115 48.819-41.304 86.71 0s66.14 171.476 74.26 220.111 2.001 79.22-37.799 83.038-67.543-8.467-88.932-94.6C55.689 978.437 23.143 905.047 42.839 856.02z"/></clipPath><linearGradient id="N" gradientUnits="userSpaceOnUse" x1="1099.512" x2="627.639" y1="425.847" y2="608.104"><stop offset="0" stop-color="#31325c"/><stop offset=".915" stop-color="#70a7e8"/></linearGradient><linearGradient id="O" gradientUnits="userSpaceOnUse" x1="241.009" x2="645.275" y1="250.191" y2="250.191"><stop offset="0" stop-color="#ff593b"/><stop offset=".389" stop-color="#fd583b"/><stop offset=".529" stop-color="#f6573c"/><stop offset=".629" stop-color="#ea553e"/><stop offset=".71" stop-color="#d95140"/><stop offset=".779" stop-color="#c34d44"/><stop offset=".84" stop-color="#a84848"/><stop offset=".896" stop-color="#87424e"/><stop offset=".947" stop-color="#623b54"/><stop offset=".992" stop-color="#39335a"/><stop offset="1" stop-color="#31325c"/></linearGradient><linearGradient id="P" gradientUnits="userSpaceOnUse" x1="391.992" x2="211.818" y1="148.357" y2="546.998"><stop offset=".232" stop-color="#d8e7dd"/><stop offset=".945" stop-color="#3ade9e"/></linearGradient><linearGradient id="Q" gradientUnits="userSpaceOnUse" x1="354.668" x2="278.75" y1="118.348" y2="8.863"><stop offset="0" stop-color="#ffb4a5"/><stop offset=".78" stop-color="#31325c"/></linearGradient><linearGradient id="R" gradientTransform="matrix(.99737927 .07235044 -.07235044 .99737927 46.245 168.257)" gradientUnits="userSpaceOnUse" x1="176.742" x2="313.509" y1="-146.634" y2="-146.634"><stop offset=".275" stop-color="#ff74ba"/><stop offset=".374" stop-color="#ff6ea1"/><stop offset=".612" stop-color="#ff636a"/><stop offset=".79" stop-color="#ff5b47"/><stop offset=".886" stop-color="#ff593b"/></linearGradient><linearGradient id="S" gradientTransform="matrix(.99737927 .07235044 -.07235044 .99737927 46.245 168.257)" gradientUnits="userSpaceOnUse" x1="201.168" x2="295.236" y1="-142.697" y2="-146.307"><stop offset=".187" stop-color="#ff74ba"/><stop offset=".319" stop-color="#ff6ea1"/><stop offset=".636" stop-color="#ff636a"/><stop offset=".872" stop-color="#ff5b47"/><stop offset="1" stop-color="#ff593b"/></linearGradient><linearGradient id="T" gradientTransform="matrix(.98136297 -.17588553 .18135439 1.01187676 -373.756 -337.928)" gradientUnits="userSpaceOnUse" x1="665.544" x2="605.085" y1="510.616" y2="486.936"><stop offset=".165" stop-color="#ffb4a5"/><stop offset=".547" stop-color="#31325c"/></linearGradient><path d="M346.583 138.918c-22.867-15.991-70.216-15.571-128.223 40.078S85.802 330.541 95.429 388.098c12.375 73.985 76.197 120.77 120.648 88.728s125.171-140.78 142.835-188.039 22.684-125.384-12.33-149.869z" fill="url(#B)"/><path d="M321.219 437.496s-102.291 95.299-173.206 39.89-72.402-141.145-18.523-185.755c53.88-44.61 172.39 91.473 191.729 145.865z" fill="url(#C)"/><path d="M192.766 427.181c-5.004 0-10.306-.919-15.764-2.774-13.54-4.601-26.482-14.453-36.442-27.742-9.961-13.289-15.787-28.476-16.404-42.762-.632-14.638 4.251-26.621 13.751-33.741 9.498-7.12 22.368-8.445 36.243-3.731 13.54 4.601 26.481 14.454 36.441 27.742 9.961 13.289 15.787 28.476 16.404 42.762.632 14.638-4.251 26.621-13.751 33.741-5.762 4.319-12.765 6.505-20.479 6.505zM158.41 318.663c-6.648 0-12.632 1.847-17.505 5.5-8.138 6.1-12.313 16.585-11.753 29.524.574 13.29 6.046 27.488 15.408 39.979 9.363 12.491 21.455 21.727 34.051 26.007 12.262 4.167 23.497 3.101 31.636-2.998 8.138-6.1 12.313-16.585 11.753-29.524-.574-13.29-6.046-27.488-15.408-39.979s-21.455-21.727-34.05-26.007c-4.921-1.672-9.676-2.501-14.132-2.501z" fill="#008090"/><path d="m462.883 849.591 76.294 63.069c26.397 21.821 63.606 24.854 93.188 7.594l1.86-1.085c49.65-28.969 54.629-98.802 9.591-134.522l-78.154-61.984c-32.786-26.003-79.922-23.016-109.164 6.918-33.382 34.172-30.434 89.574 6.385 120.011z" fill="url(#D)"/><path d="M639.53 781.248s34.973 57.764-1.728 106.663l-87.482 31.241s-9.652 87.434-9.652 120.62 5.372 79.112 42.805 92.682c30.996 11.236 56.538 9.313 85.61-5.321s46.162-60.612 47.841-113.524 11.531-147.718-17.808-190.852l-59.585-41.508z" fill="url(#A)"/><path d="M558.494 1047.652h-.075a2.5 2.5 0 0 1-2.425-2.573l3.709-125.343c.041-1.379 1.146-2.446 2.573-2.425a2.5 2.5 0 0 1 2.425 2.573l-3.709 125.344a2.5 2.5 0 0 1-2.498 2.426zm48.52 81.987c-12.116 0-24.661-2.646-39.06-7.865a2.499 2.499 0 1 1 1.703-4.701c30.705 11.13 52.574 10.005 80.695-4.15 26.912-13.546 44.717-56.221 46.466-111.37.303-9.521.921-19.729 1.576-30.535 2.942-48.549 6.604-108.97-16.329-159.732a2.501 2.501 0 0 1 4.557-2.059c23.443 51.89 19.739 112.995 16.764 162.094-.653 10.77-1.27 20.942-1.569 30.391-1.808 56.982-20.666 101.308-49.216 115.679-16.314 8.212-30.623 12.25-45.587 12.25z" fill="#e6efe8"/><path d="M634.096 1015.754h-.075a2.5 2.5 0 0 1-2.425-2.573l3.708-125.343c.041-1.379 1.175-2.439 2.573-2.425a2.5 2.5 0 0 1 2.425 2.573l-3.708 125.344a2.5 2.5 0 0 1-2.498 2.426z" fill="#e6efe8"/><path d="M715.405 1034.552c-34.015-15.655-46.103-30.898-128.55-15.086-36.526 7.005-43.035 8.01-46.114 14.887-.047 1.93-.072 3.746-.072 5.418 0 33.186 5.372 79.112 42.805 92.682 30.996 11.236 56.538 9.313 85.61-5.322 25.155-12.662 41.33-48.797 46.322-92.579z" fill="#e6efe8"/><path d="M645.01 886.246s-47.517-35.18-91.017-7.956c-59.024 36.94-4.602 49.515-4.602 49.515z" fill="url(#E)"/><path d="M504.392 922.333S236.78 781.174 227.827 695.868c-11.8-112.429 26.697-197.856 163.024-115.867s220.117 157.69 220.117 157.69 20.008 55.419-13.563 112.439c-35.155 59.712-93.013 72.202-93.013 72.202z" fill="url(#F)"/><path d="M349.94 441.326s-92.827 97.045-115.774 155.75c-22.947 58.704-13.185 126.816 32.188 157.307 36.129 24.279 143.496 9.452 199.879-75.798s143.238-279.622 58.666-312.537-174.959 75.279-174.959 75.279z" fill="url(#G)"/><path d="M741.293 333.573c9.56 88.391-35.144 129.17-87.721 100.404-52.577-28.765-176.284-97.367-170.617-155.493 3.916-40.169-6.906-148.663-6.906-148.663s250.738 69.631 265.244 203.752z" fill="url(#H)"/><ellipse cx="260.878" cy="917.122" fill="#31325c" rx="64.838" ry="111.16" transform="matrix(.76248768 -.64700273 .64700273 .76248768 -531.42 386.618)"/><path d="m234.783 833.752-63.069 76.294c-21.821 26.397-24.854 63.606-7.594 93.188l1.085 1.86c28.969 49.65 98.802 54.629 134.522 9.591l61.984-78.154c26.003-32.786 23.016-79.922-6.918-109.164-34.171-33.382-89.574-30.434-120.011 6.385z" fill="url(#I)"/><path d="M229.249 966.88s37.565-45.472 22.179-90.281-61.425-29.748-64.449 2.609c-3.025 32.357 42.27 87.672 42.27 87.672z" fill="url(#J)"/><path d="M57.243 840.556s54.089-31.221 84.468-23.865 54.383 32.283 70.702 77.372 20.455 64.922 20.455 64.922l6.815-7.722 16.761 67.438 37.293 2.755s-36.441 71.863-62.525 97.947c-38.061 38.061-52.475 39.119-72.539 40.281S57.244 840.557 57.244 840.557z" fill="url(#K)"/><path d="M214.416 899.644a1329.91 1329.91 0 0 0-2.002-5.582c-16.319-45.089-40.324-70.016-70.702-77.372-30.379-7.356-84.468 23.865-84.468 23.865s-12.322 34.706-3.351 70.953l48.285 58.502 69.668-15.917s32.292-12.331 42.57-54.45z" fill="#e6efe8"/><path d="M42.839 856.02c8.081-20.115 48.819-41.304 86.71 0s66.14 171.476 74.26 220.111 2.001 79.22-37.799 83.038-67.543-8.467-88.932-94.6C55.689 978.437 23.143 905.047 42.839 856.02z" fill="url(#L)"/><path d="M224.359 1125.721a2.5 2.5 0 0 1-2.384-3.257c3.994-12.598 3.95-29.868-.139-54.35-4.513-27.03-13.687-70.783-25.899-112.514-15.26-52.146-31.767-88.911-47.735-106.319-35.751-38.969-62.283-18.956-63.396-18.085-1.086.851-2.655.664-3.508-.417s-.674-2.646.405-3.503c.32-.255 7.999-6.245 20.618-6.85 11.435-.549 29.334 3.424 49.563 25.476 36.668 39.971 65.017 162.293 74.883 221.389 4.224 25.292 4.215 43.305-.027 56.686a2.5 2.5 0 0 1-2.382 1.745z" fill="#e6efe8"/><g clip-path="url(#M)" fill="#e6efe8"><path d="M9.991 903.396c-4.585 0-8.718-3.173-9.753-7.835-1.196-5.392 2.204-10.732 7.596-11.929l152.45-33.84c5.392-1.196 10.732 2.203 11.93 7.595 1.196 5.392-2.204 10.732-7.596 11.929l-152.45 33.84c-.729.162-1.459.24-2.177.24zm13.039 49.788c-4.585 0-8.718-3.173-9.753-7.835-1.196-5.392 2.204-10.732 7.596-11.929l152.45-33.84c5.389-1.196 10.732 2.204 11.93 7.595 1.196 5.392-2.204 10.732-7.596 11.929l-152.45 33.84c-.729.162-1.459.24-2.177.24zm13.038 49.789c-4.585 0-8.718-3.173-9.753-7.835-1.196-5.392 2.204-10.732 7.596-11.929l152.451-33.84c5.387-1.197 10.732 2.204 11.93 7.595 1.196 5.392-2.204 10.732-7.596 11.929l-152.451 33.84c-.729.162-1.459.24-2.177.24zm13.039 49.787c-4.585 0-8.718-3.173-9.753-7.835-1.196-5.392 2.204-10.732 7.596-11.93l152.451-33.839c5.392-1.197 10.732 2.204 11.93 7.595 1.196 5.392-2.204 10.732-7.596 11.93l-152.451 33.84c-.729.162-1.459.239-2.177.239zm13.039 49.788c-4.585 0-8.718-3.173-9.753-7.835-1.196-5.392 2.204-10.732 7.596-11.93l152.451-33.841c5.39-1.199 10.733 2.204 11.93 7.596s-2.204 10.732-7.596 11.93l-152.451 33.841c-.729.162-1.459.239-2.177.239zm13.039 49.788c-4.585 0-8.718-3.173-9.753-7.835-1.196-5.392 2.204-10.732 7.596-11.93l152.45-33.841c5.389-1.199 10.732 2.204 11.93 7.596 1.196 5.392-2.204 10.732-7.596 11.93l-152.45 33.841c-.729.161-1.459.239-2.177.239zm13.039 49.788c-4.585 0-8.718-3.173-9.753-7.835-1.196-5.392 2.204-10.732 7.596-11.93l152.45-33.841c5.386-1.192 10.732 2.204 11.93 7.596 1.196 5.392-2.204 10.732-7.596 11.93l-152.45 33.841c-.729.162-1.459.239-2.177.239z"/></g><path d="M631.058 338.485s62.088 70.862 62.088 128.091c0 76.625-55.651 161.604-97.327 211.994C541.5 744.246 336.95 997.895 336.95 997.895s32.391-63.647-39.138-126.991c-65.499-58.003-111.343-36.233-111.343-36.233l257.883-335.154-41.317 1.882 18.55-91.223 209.473-71.692z" fill="url(#N)"/><path d="M328.083 908.814a2.5 2.5 0 0 1-1.909-4.113c1.537-1.821 154.278-182.744 202.34-238.15 66.99-77.227 109.848-155.124 106.646-193.837-5.234-63.312-44.085-119.577-44.477-120.137a2.5 2.5 0 1 1 4.097-2.864c.399.571 40.014 57.901 45.361 122.589 1.617 19.546-7.553 48.368-26.517 83.35-19.302 35.604-47.427 75.085-81.335 114.175-48.04 55.381-200.76 236.278-202.297 238.099-.494.585-1.2.887-1.911.887z" fill="#31325c"/><path d="m645.275 340.999-76.765-92.741s-85.555-4.582-92.462-118.437c-2.679-44.169 24.463-83.555 21.857-83.485-48.701 1.322-113.646 55.301-113.646 55.301-85.935 35.467-115.239 23.405-133.258 56.432-35.925 65.851 33.637 272.438 72.572 292.851 35.363 18.54 293.962-48.938 321.702-109.922z" fill="url(#O)"/><path d="m291.505 482.129 218.024-39.926c6.962-1.275 10.432-9.18 6.659-15.168L348.351 160.68a10.001 10.001 0 0 0-10.262-4.505l-218.024 39.926c-6.962 1.275-10.432 9.18-6.659 15.168l167.837 266.355a10.001 10.001 0 0 0 10.262 4.505z" fill="url(#P)"/><path d="M456.162 64.485c21.314-23.164 71.366-31.931 142.418 21.779 71.052 53.711 166.786 155.384 166.786 224.55 0 88.907-59.218 151.928-111.795 123.163S496.595 293.882 469.606 242.09c-26.988-51.792-46.08-142.137-13.445-177.606z" fill="#fff9e7"/><ellipse cx="485.785" cy="265.425" fill="#31325c" rx="55.26" ry="24.214" transform="matrix(.4896564 -.87191549 .87191549 .4896564 16.492 559.025)"/><g fill="#ffb4a5"><path d="M491.526 316.697s-33.136-1.679-48.725-24.248-19.631-98.594 11.667-98.594c23.358 0 40.764 19.536 73.202 41.862 10.553 7.264-11.142 83.347-36.144 80.98z"/><path d="M448.769 292.425s-44.943 14.577-56.979 18.73-21.593-8.031-14.457-19.402c7.136-11.37 53.95-37.675 70.239-30.438s10.405 19.993 1.197 31.11z"/><path d="M451.652 273.351S395.831 290.2 380.882 295c-14.95 4.8-26.819-9.283-17.956-22.425s67.008-43.546 87.24-35.181 12.924 23.108 1.487 35.957z"/><path d="M455.115 255.876s-60.622 16.849-76.857 21.649c-16.236 4.8-29.126-9.283-19.5-22.425s72.772-43.546 94.743-35.181c21.972 8.365 14.035 23.108 1.615 35.957z"/><path d="M463.115 231.245s-60.622 16.849-76.857 21.649c-16.236 4.8-29.126-9.283-19.5-22.425s72.772-43.546 94.743-35.181c21.972 8.365 14.035 23.108 1.615 35.957z"/></g><path d="M375.137 299.687a2.5 2.5 0 0 1-2.457-2.977c.415-2.138 1.39-4.112 2.438-6.115 6.803-13.005 54.269-29.772 59.658-31.641a2.5 2.5 0 1 1 1.639 4.723c-14.127 4.899-51.881 19.703-56.867 29.235-.868 1.662-1.673 3.275-1.959 4.75a2.5 2.5 0 0 1-2.451 2.024zm-14.049-21.217a2.501 2.501 0 0 1-2.31-3.454 21.56 21.56 0 0 1 2.075-3.84c9.057-13.429 64.677-33.849 70.989-36.133a2.5 2.5 0 0 1 1.701 4.701c-16.728 6.054-61.65 24.003-68.546 34.228a16.647 16.647 0 0 0-1.597 2.95 2.502 2.502 0 0 1-2.313 1.547zm4.746-28.802a2.498 2.498 0 0 1-1.605-4.417c13.571-11.359 65.407-30.343 67.607-31.146a2.5 2.5 0 0 1 1.713 4.698c-.53.193-53.207 19.483-66.111 30.283a2.488 2.488 0 0 1-1.604.583z" fill="#31325c"/><path d="M755.891 335.134c3.749 19.8-6.785 61.162-27.794 86.011-52.878 62.542-139.907 23.099-172.843-4.167-70.371-58.255-53.05-81.57-53.05-81.57l-43.74-21.955s29.104 7.407 49.767-40.182c19.624-45.196 4.859-55.887 4.859-55.887l34.636 16.886s16.032-20.29 50.368-11.082 147.076 55.305 157.799 111.946z" fill="#fff9e7"/><path d="M502.2 337.908a2.499 2.499 0 0 1-.269-4.985c.164-.021 18.805-2.808 34.753-39.35 16.996-38.945 8.848-58.082 8.764-58.271a2.506 2.506 0 0 1 1.247-3.303 2.494 2.494 0 0 1 3.3 1.224c.388.841 9.283 21.077-8.729 62.35-17.248 39.521-37.918 42.224-38.79 42.319-.092.01-.185.015-.275.015z" fill="#008090"/><rect fill="url(#Q)" height="115.751" rx="28.528" transform="matrix(.71081175 -.7033823 .7033823 .71081175 29.393 268.13)" width="59.621" x="310.969" y="40.444"/><path d="M365.313 80.61s10.217-34.222-6.3-58.993c-20.483-30.719-74.8-24.654-93.232-6.809-12.726 12.321-20.494 39.79-34.708 48.365 0 0 7.714 16.946 37.01 13.78s97.229 3.657 97.229 3.657z" fill="url(#R)"/><path d="M263.82 35.505s-14.612 35.486 1.209 68.208c15.821 32.721 39.284 48.34 67.364 36.065 30.968-13.537 32.386-57.191 24.154-77.973-18.695-47.2-92.727-26.3-92.727-26.3z" fill="#ffb4a5"/><path d="M308.377 131.076a2.5 2.5 0 0 1-.978-4.801c11.73-4.979 11.338-17.27 11.315-17.79a2.503 2.503 0 0 1 2.381-2.609 2.51 2.51 0 0 1 2.613 2.368c.28 5.602-2.359 17.542-14.356 22.634a2.491 2.491 0 0 1-.976.199z" fill="#31325c"/><path d="M351.197 45.484S303.443 84.65 283.51 49.41c0 0-20.555 4.252-25.757 24.296 0 0-9.925-47.491 20.83-60.394 30.755-12.903 72.496 3.403 72.614 32.172z" fill="url(#S)"/><path d="M287.704 114.803a2.494 2.494 0 0 1-2.023-1.029l-2.78-3.82c-3.474-4.774-2.416-11.484 2.356-14.959a10.645 10.645 0 0 1 7.968-1.92 10.641 10.641 0 0 1 6.992 4.276l2.78 3.82a2.5 2.5 0 0 1-4.043 2.943l-2.78-3.82a5.673 5.673 0 0 0-3.727-2.28 5.683 5.683 0 0 0-4.247 1.023 5.717 5.717 0 0 0-1.257 7.975l2.78 3.82a2.5 2.5 0 0 1-2.02 3.972z" fill="#31325c"/><ellipse cx="359.986" cy="58.661" fill="#ffb4a5" rx="20.146" ry="23.813" transform="matrix(.98431592 -.17641478 .17641478 .98431592 -4.703 64.429)"/><path d="m363.636 47.398-13.384 19.136 15.55 6.664z" fill="url(#T)"/><path d="M206.863 354.055s15.275 39.414-5.876 46.681c-12.773 4.389-25.205 1.632-44.884-15.126-19.034-16.209-21.424-45.497-22.925-69.075-1.783-28.024 3.709-38.901 25.099-29.195s48.586 66.715 48.586 66.715z" fill="#ffb4a5"/><path d="M208.475 367.007s8.435-38.376 14.169-50.119c5.733-11.742-7.506-23.48-14.909-16.975-7.59 6.67-22.619 30.319-23.144 46.791s18.075 28.611 23.885 20.302z" fill="#ffb4a5"/><path d="M187.934 356.235s15.333-53.281 22.032-67.585-9.98-22.725-17.47-16.785c-9.772 7.749-27.627 44.023-27.589 63.755.038 19.731 16.087 30.815 23.027 20.616z" fill="#ffb4a5"/><path d="M174.798 337.845s13.834-60.664 20.678-77.221c6.844-16.558-14.119-24.136-22.666-16.766-11.151 9.616-29.558 51.696-27.753 73.561s22.24 32.461 29.741 20.426z" fill="#ffb4a5"/><path d="M162.707 330.026s6.914-62.721 11.638-80.042-15.397-23.667-22.588-15.596c-9.381 10.53-22.325 54.616-18.537 76.776s23.715 31.616 29.486 18.862z" fill="#ffb4a5"/><path d="m184.58 356.253-.08-.001a2.5 2.5 0 0 1-2.42-2.578c.55-17.272 14.176-46.429 23.944-55.584a2.5 2.5 0 0 1 3.42 3.649c-8.927 8.365-21.859 36.175-22.366 52.095a2.5 2.5 0 0 1-2.498 2.42zm-19.673-18.134a2.5 2.5 0 0 1-2.5-2.495c-.04-20.908 18.527-57.781 28.535-65.718a2.5 2.5 0 0 1 3.108 3.918c-9.289 7.366-26.68 42.698-26.643 61.791a2.5 2.5 0 0 1-2.495 2.505h-.005zm-19.853-18.201a2.499 2.499 0 0 1-2.488-2.294c-1.91-23.132 17.231-65.847 28.611-75.66a2.5 2.5 0 0 1 3.265 3.787c-10.643 9.177-28.644 50.27-26.895 71.461a2.5 2.5 0 0 1-2.494 2.705z" fill="#31325c"/></svg></g><g transform="translate(879.0 246.0) rotate(0.0 231.0 145.5) scale(1.7959602556327843 1.789271747952483)"><svg width="257.244" height="162.636" viewBox="0 0 257.244 162.636"><linearGradient id="U" gradientUnits="userSpaceOnUse" x1="-78.808" x2="410.87" y1="-105.431" y2="335.426"><stop offset=".232" stop-color="#d8e7dd"/><stop offset=".945" stop-color="#3ade9e"/></linearGradient><linearGradient id="V" gradientTransform="matrix(1 0 0 -1 0 -1821.546)" gradientUnits="userSpaceOnUse" x1="249.299" x2="28.736" y1="-1817.591" y2="-1928.721"><stop offset="0" stop-color="#f9e79b"/><stop offset="1" stop-color="#fff9e7"/></linearGradient><rect fill="url(#U)" height="162.636" rx="10" width="257.244"/><rect fill="#fff9e7" height="14.699" rx="7.349" width="154.222" x="85.774" y="115.701"/><rect fill="#fff9e7" height="14.699" rx="7.349" width="154.222" x="17.248" y="73.968"/><rect fill="url(#V)" height="14.699" rx="7.349" width="154.222" x="85.774" y="32.235"/></svg></g></svg>